#!OML:ASF G:\JayActor3\Patient Classification 1\Patient 1\Session 6\male.ASF
:FULLY-SPECIFIED
:DEGREES
2100
root 6.63563 16.0413 -12.6426 177.96 -5.45912 -172.845
lowerback 3.37746 0.360711 10.1111
upperback 4.493 0.192107 1.70277
thorax 2.86468 0.20833 -3.89435
lowerneck -6.78619 1.10232 2.33721
upperneck 4.63073 0.90907 3.82333
head 2.64769 0.580663 0.861848
rclavicle -1.2921e-014 -2.65378e-014
rhumerus -27.0766 12.4909 -91.2065
rradius 44.8319
rwrist 1.0919
rhand -19.8175 -8.81378
rfingers 7.12502
rthumb 6.51597 -38.6935
lclavicle -1.2921e-014 -2.65378e-014
lhumerus -34.382 3.86781 82.0987
lradius 28.3527
lwrist 18.6444
lhand -21.5941 6.61823
lfingers 7.12502
lthumb 4.80068 36.5438
rfemur 25.422 0.678193 32.7973
rtibia 5.38799
rfoot -10.1301 1.55516
rtoes -4.41409
lfemur -29.6353 18.565 -22.9948
ltibia 29.2672
lfoot -6.82499 12.1606
ltoes -0.0977594
2101
root 6.61009 16.0345 -12.7788 177.862 -5.31064 -172.886
lowerback 3.39707 0.327679 9.89204
upperback 4.50044 0.15492 1.63385
thorax 2.85115 0.186777 -3.8445
lowerneck -6.82297 1.1549 2.41542
upperneck 4.66035 0.968618 3.80734
head 2.66446 0.611521 0.846379
rclavicle 6.07536e-015 -3.26007e-014
rhumerus -27.2236 12.3936 -91.3111
rradius 45.1176
rwrist 1.16561
rhand -19.8886 -8.77603
rfingers 7.12502
rthumb 6.44732 -38.6579
lclavicle 6.07536e-015 -3.26007e-014
lhumerus -34.4263 4.02479 81.9901
lradius 28.0914
lwrist 18.5424
lhand -21.514 6.62832
lfingers 7.12502
lthumb 4.87803 36.5522
rfemur 24.5441 0.45163 32.4523
rtibia 8.0695
rfoot -10.0004 2.54288
rtoes -4.02344
lfemur -29.1283 18.2265 -22.741
ltibia 29.7493
lfoot -7.65465 12.2283
ltoes 0.884529
2102
root 6.58517 16.0297 -12.9151 177.754 -5.21242 -172.981
lowerback 3.42941 0.287147 9.60797
upperback 4.50656 0.110117 1.55409
thorax 2.82686 0.159797 -3.7697
lowerneck -6.86012 1.20082 2.48674
upperneck 4.70588 1.01926 3.79237
head 2.68681 0.638259 0.832247
rclavicle -2.77056e-015 5.81445e-015
rhumerus -27.3895 12.2692 -91.4067
rradius 45.4075
rwrist 1.22542
rhand -19.9644 -8.72933
rfingers 7.12502
rthumb 6.37415 -38.6134
lclavicle -2.77056e-015 5.81445e-015
lhumerus -34.4443 4.16473 81.8927
lradius 27.8131
lwrist 18.4346
lhand -21.4523 6.64614
lfingers 7.12502
lthumb 4.93767 36.5686
rfemur 23.7318 0.175493 32.0456
rtibia 10.6138
rfoot -9.60971 3.43818
rtoes -3.54344
lfemur -28.614 17.9403 -22.5641
ltibia 30.2091
lfoot -8.45993 12.3
ltoes 1.72482
2103
root 6.56101 16.0269 -13.0508 177.65 -5.15561 -173.102
lowerback 3.46491 0.24569 9.28907
upperback 4.5045 0.0655881 1.47102
thorax 2.79189 0.131823 -3.67875
lowerneck -6.89522 1.23645 2.5489
upperneck 4.77186 1.05649 3.77701
head 2.71583 0.658671 0.819208
rclavicle -4.55962e-015 -8.34896e-015
rhumerus -27.5754 12.1146 -91.4901
rradius 45.6964
rwrist 1.2744
rhand -20.0485 -8.67461
rfingers 7.12502
rthumb 6.29304 -38.5611
lclavicle -4.55962e-015 -8.34896e-015
lhumerus -34.4357 4.28306 81.8086
lradius 27.5198
lwrist 18.3234
lhand -21.3998 6.66655
lfingers 7.12502
lthumb 4.98832 36.5878
rfemur 22.8789 0.0275173 31.6801
rtibia 13.1753
rfoot -9.08125 4.06853
rtoes -2.94874
lfemur -28.1167 17.7471 -22.4526
ltibia 30.6485
lfoot -9.21152 12.3237
ltoes 2.41168
2104
root 6.53769 16.0262 -13.1856 177.563 -5.12964 -173.231
lowerback 3.49232 0.208338 8.95706
upperback 4.48786 0.0273359 1.39022
thorax 2.74716 0.106367 -3.57791
lowerneck -6.9272 1.26104 2.60511
upperneck 4.8627 1.07903 3.75886
head 2.75285 0.672183 0.805898
rclavicle 1.39413e-014 6.62201e-015
rhumerus -27.7935 11.9558 -91.5635
rradius 46.0016
rwrist 1.29222
rhand -20.1412 -8.63721
rfingers 7.12502
rthumb 6.2035 -38.5264
lclavicle 1.39413e-014 6.62201e-015
lhumerus -34.4008 4.38634 81.7341
lradius 27.2138
lwrist 18.2002
lhand -21.3545 6.69308
lfingers 7.12502
lthumb 5.03202 36.6133
rfemur 21.932 -0.1692 31.2918
rtibia 15.8072
rfoot -8.33517 4.58961
rtoes -2.28566
lfemur -27.6508 17.657 -22.3919
ltibia 31.0645
lfoot -9.8945 12.2836
ltoes 2.96939
2105
root 6.51476 16.0278 -13.3194 177.502 -5.11693 -173.344
lowerback 3.50453 0.178991 8.64243
upperback 4.45146 0.000196789 1.31841
thorax 2.69241 0.0864723 -3.47724
lowerneck -6.95748 1.27611 2.64784
upperneck 4.98796 1.08941 3.73726
head 2.80133 0.680157 0.793623
rclavicle -2.29534e-015 -2.90723e-015
rhumerus -28.0424 11.807 -91.6259
rradius 46.3188
rwrist 1.27956
rhand -20.2391 -8.6132
rfingers 7.12502
rthumb 6.10898 -38.5051
lclavicle -2.29534e-015 -2.90723e-015
lhumerus -34.3469 4.48508 81.6678
lradius 26.9029
lwrist 18.0627
lhand -21.2839 6.72141
lfingers 7.12502
lthumb 5.10026 36.64
rfemur 20.8667 -0.409407 30.8975
rtibia 18.5248
rfoot -7.36138 4.98074
rtoes -1.5789
lfemur -27.2157 17.6394 -22.3505
ltibia 31.4502
lfoot -10.5312 12.2104
ltoes 3.42576
